# File created by Blade
# Date/Time:  Tue Apr 07 20:57:09 2015
# Frame Rate: 120.000 fps
#------------------------------------------------------
:FULLY-SPECIFIED
:DEGREES
892
root 32.545645 31.509812 12.499480 378.405193 -70.322820 -716.830763
Spine -16.039784 -18.321778 -2.765172
Head 15.589875 -3.713006 1.496848
LeftShoulder -16.820747 34.242141 28.010639
LeftArm 74.058812 -65.464385 -77.772841
LeftForeArm 4.514345 -0.000000 7.845465
LeftHand 10.136423 0.000000 21.148589
LeftHandThumb1 -26.253704 0.000000 33.147579
RightShoulder -10.832184 16.275195 -40.885152
RightArm 20.954738 24.490411 33.257097
RightForeArm -20.192490 -0.000000 20.131289
RightHand 4.536425 0.000000 -6.280184
RightHandThumb1 -24.326973 -0.000000 -32.862282
LeftUpLeg 2.513036 2.050294 4.209603
LeftLeg 7.631039 -0.000000 -0.000000
LeftFoot 9.025568 11.191375 -22.337549
LeftToeBase -49.743222 -0.000000 0.000000
RightUpLeg -45.176147 -9.089164 9.304180
RightLeg 31.459237 -0.000000 -0.000000
RightFoot -9.361692 -10.043308 3.176716
RightToeBase -5.598666 -0.000000 0.000000
893
root 32.305332 31.617264 12.513233 378.310568 -70.950973 -717.113477
Spine -15.762511 -17.649300 -2.706154
Head 16.012937 -3.348939 1.188485
LeftShoulder -16.972624 34.486998 27.544459
LeftArm 73.631100 -65.146291 -78.855668
LeftForeArm 4.376647 0.000000 7.788634
LeftHand 10.271816 -0.000000 20.947437
LeftHandThumb1 -26.253704 0.000000 33.147579
RightShoulder -10.357470 16.042136 -40.496146
RightArm 20.922464 24.268304 34.011829
RightForeArm -19.819742 -0.000000 20.182426
RightHand 4.897591 -0.000000 -6.724082
RightHandThumb1 -24.326973 -0.000000 -32.862282
LeftUpLeg 1.978378 1.570836 4.237217
LeftLeg 9.867666 -0.000000 -0.000000
LeftFoot 10.166224 11.607168 -21.723067
LeftToeBase -49.697654 -0.000000 0.000000
RightUpLeg -43.782686 -8.791682 9.266121
RightLeg 30.347589 -0.000000 -0.000000
RightFoot -9.204853 -9.748714 3.366827
RightToeBase -5.502268 -0.000000 0.000000
894
root 32.069818 31.726881 12.530663 378.091124 -71.556045 -717.291444
Spine -15.454880 -16.983218 -2.669726
Head 16.469724 -3.032187 0.827802
LeftShoulder -17.122994 34.768993 27.054208
LeftArm 73.375088 -64.818440 -80.128361
LeftForeArm 3.830671 0.000000 7.673600
LeftHand 10.151252 -0.000000 21.539358
LeftHandThumb1 -26.253704 0.000000 33.147579
RightShoulder -9.807796 15.834949 -40.045618
RightArm 20.881543 23.988937 34.552895
RightForeArm -18.353240 -0.000000 19.959666
RightHand 5.178000 0.000000 -3.476563
RightHandThumb1 -24.326973 -0.000000 -32.862282
LeftUpLeg 1.314355 1.104198 4.221085
LeftLeg 12.368031 -0.000000 -0.000000
LeftFoot 11.146668 12.033472 -21.528772
LeftToeBase -48.662083 -0.000000 0.000000
RightUpLeg -42.339928 -8.524007 9.196569
RightLeg 29.163652 -0.000000 -0.000000
RightFoot -9.007967 -9.530120 3.482699
RightToeBase -5.361764 -0.000000 0.000000
895
root 31.837079 31.834504 12.545657 377.815039 -72.121235 -717.399754
Spine -15.137112 -16.331485 -2.677249
Head 16.934841 -2.727085 0.531636
LeftShoulder -17.263465 34.955788 26.657789
LeftArm 72.910052 -64.380868 -81.198023
LeftForeArm 3.432612 -0.000000 7.564991
LeftHand 9.945999 -0.000000 21.762728
LeftHandThumb1 -26.253704 0.000000 33.147579
RightShoulder -9.347852 15.692842 -39.686087
RightArm 20.788505 23.689495 35.318290
RightForeArm -18.122897 -0.000000 19.947134
RightHand 5.277337 0.000000 -3.480529
RightHandThumb1 -24.326973 -0.000000 -32.862282
LeftUpLeg 0.507366 0.597379 4.194169
LeftLeg 15.084168 -0.000000 -0.000000
LeftFoot 12.063568 12.770385 -22.347060
LeftToeBase -47.458564 -0.000000 0.000000
RightUpLeg -40.875745 -8.270372 9.121071
RightLeg 27.898915 -0.000000 -0.000000
RightFoot -8.766189 -9.388658 3.494543
RightToeBase -5.335953 -0.000000 0.000000
896
root 31.607026 31.940711 12.563307 377.309042 -72.699793 -717.260371
Spine -14.823814 -15.686560 -2.777053
Head 17.418307 -2.442098 0.313256
LeftShoulder -17.407799 35.243033 26.251036
LeftArm 72.548554 -63.960226 -82.334602
LeftForeArm 3.378096 -0.000000 7.449601
LeftHand 10.214760 -0.000000 20.917418
LeftHandThumb1 -26.253704 0.000000 33.147579
RightShoulder -8.922398 15.496798 -39.348640
RightArm 20.749983 23.436356 36.213531
RightForeArm -17.876134 0.000000 19.952160
RightHand 5.781262 -0.000000 -4.074292
RightHandThumb1 -24.326973 -0.000000 -32.862282
LeftUpLeg -0.416573 0.083057 4.054092
LeftLeg 17.947941 -0.000000 -0.000000
LeftFoot 12.660474 13.282724 -22.052988
LeftToeBase -44.844507 -0.000000 0.000000
RightUpLeg -39.410978 -7.989001 8.957284
RightLeg 26.611717 -0.000000 -0.000000
RightFoot -8.522970 -9.325247 3.455755
RightToeBase -5.254714 -0.000000 0.000000
897
root 31.380518 32.044251 12.580712 376.683918 -73.241876 -716.985819
Spine -14.513633 -15.039773 -2.916953
Head 17.908500 -2.200140 0.112217
LeftShoulder -17.592929 35.586548 25.809144
LeftArm 72.267638 -63.441699 -83.380137
LeftForeArm 3.325653 0.000000 7.197560
LeftHand 10.253180 -0.000000 20.136171
LeftHandThumb1 -26.253704 0.000000 33.147579
RightShoulder -8.528783 15.326700 -39.043673
RightArm 20.673216 23.130340 37.140231
RightForeArm -17.549907 -0.000000 19.949691
RightHand 5.768619 -0.000000 -4.280879
RightHandThumb1 -24.326973 -0.000000 -32.862282
LeftUpLeg -1.518426 -0.221243 3.898375
LeftLeg 21.004712 -0.000000 -0.000000
LeftFoot 13.233281 13.559581 -21.478808
LeftToeBase -40.345583 -0.000000 0.000000
RightUpLeg -37.956287 -7.741350 8.781191
RightLeg 25.299594 -0.000000 -0.000000
RightFoot -8.288858 -9.310857 3.369277
RightToeBase -5.128972 -0.000000 0.000000
898
root 31.157265 32.142575 12.595049 376.033903 -73.746213 -716.661668
Spine -14.222561 -14.426715 -3.056495
Head 18.394884 -1.940431 -0.056582
LeftShoulder -17.766117 35.917203 25.350184
LeftArm 71.817357 -62.937701 -84.133308
LeftForeArm 3.134050 0.000000 6.842155
LeftHand 10.029262 -0.000000 19.894418
LeftHandThumb1 -26.253704 0.000000 33.147579
RightShoulder -8.180349 15.118747 -38.762786
RightArm 20.660004 22.775963 38.123244
RightForeArm -17.100375 -0.000000 19.939079
RightHand 6.126768 -0.000000 -4.743133
RightHandThumb1 -24.326973 -0.000000 -32.862282
LeftUpLeg -2.752077 -0.563389 3.722092
LeftLeg 24.175879 -0.000000 -0.000000
LeftFoot 13.552291 13.840900 -20.797245
LeftToeBase -34.836921 -0.000000 0.000000
RightUpLeg -36.532746 -7.491028 8.606327
RightLeg 23.986543 -0.000000 -0.000000
RightFoot -8.023758 -9.327255 3.246691
RightToeBase -5.073694 -0.000000 0.000000
899
root 30.937343 32.234484 12.608429 375.291203 -74.239456 -716.233953
Spine -13.935731 -13.775184 -3.234035
Head 18.887854 -1.765845 -0.207871
LeftShoulder -17.935093 36.195735 24.885877
LeftArm 71.212320 -62.362257 -84.560682
LeftForeArm 2.726370 -0.000000 6.356843
LeftHand 10.031685 -0.000000 19.559237
LeftHandThumb1 -26.253704 0.000000 33.147579
RightShoulder -7.904837 14.876399 -38.494314
RightArm 20.689090 22.321419 39.089417
RightForeArm -16.581434 -0.000000 19.887351
RightHand 6.351168 -0.000000 -4.990866
RightHandThumb1 -24.326973 -0.000000 -32.862282
LeftUpLeg -4.073020 -0.842528 3.536716
LeftLeg 27.405009 -0.000000 -0.000000
LeftFoot 13.678521 14.018318 -20.329543
LeftToeBase -29.724992 -0.000000 0.000000
RightUpLeg -35.142727 -7.234148 8.415274
RightLeg 22.709712 -0.000000 -0.000000
RightFoot -7.772455 -9.389569 3.107525
RightToeBase -4.999377 -0.000000 0.000000
900
root 30.722255 32.317423 12.623111 374.557631 -74.686027 -715.782823
Spine -13.677495 -13.158316 -3.368229
Head 19.361073 -1.644066 -0.396960
LeftShoulder -18.179308 36.501319 24.311382
LeftArm 70.514322 -61.735353 -84.680472
LeftForeArm 2.170161 -0.000000 5.727071
LeftHand 10.320929 -0.000000 19.075103
LeftHandThumb1 -26.253704 0.000000 33.147579
RightShoulder -7.654642 14.640368 -38.275922
RightArm 20.776781 21.853554 40.089013
RightForeArm -16.044567 -0.000000 19.748147
RightHand 6.565000 -0.000000 -5.346063
RightHandThumb1 -24.326973 -0.000000 -32.862282
LeftUpLeg -5.491461 -1.139449 3.355060
LeftLeg 30.647571 -0.000000 -0.000000
LeftFoot 13.356437 14.182783 -19.911236
LeftToeBase -24.727729 -0.000000 0.000000
RightUpLeg -33.835036 -7.053291 8.258878
RightLeg 21.501237 -0.000000 -0.000000
RightFoot -7.555139 -9.398142 3.008757
RightToeBase -4.885764 -0.000000 0.000000
901
root 30.509978 32.391074 12.631272 374.235149 -75.095040 -715.731557
Spine -13.438717 -12.499998 -3.381941
Head 19.796074 -1.577560 -0.578680
LeftShoulder -18.304488 36.671716 23.871369
LeftArm 69.495240 -61.101352 -84.555956
LeftForeArm 1.579114 -0.000000 5.174489
LeftHand 10.245462 -0.000000 18.470537
LeftHandThumb1 -26.253704 0.000000 33.147579
RightShoulder -7.396879 14.403324 -38.057750
RightArm 20.814140 21.346365 40.966411
RightForeArm -15.608422 -0.000000 19.573371
RightHand 6.601484 -0.000000 -5.129471
RightHandThumb1 -24.326973 -0.000000 -32.862282
LeftUpLeg -7.085109 -1.119384 3.327998
LeftLeg 34.019558 -0.000000 -0.000000
LeftFoot 12.896038 14.293827 -19.370735
LeftToeBase -21.173283 -0.000000 0.000000
RightUpLeg -32.521787 -6.813766 8.195177
RightLeg 20.213924 -0.000000 -0.000000
RightFoot -7.315550 -9.449796 2.939442
RightToeBase -4.768538 -0.000000 0.000000
902
root 30.300919 32.455849 12.643625 373.837352 -75.484016 -715.588585
Spine -13.214018 -11.870270 -3.394153
Head 20.222556 -1.534763 -0.758564
LeftShoulder -18.712600 37.233090 23.124211
LeftArm 69.651810 -60.394790 -85.274558
LeftForeArm 1.031855 0.000000 4.477503
LeftHand 10.260180 -0.000000 18.283425
LeftHandThumb1 -26.253704 0.000000 33.147579
RightShoulder -7.109242 14.178264 -37.788910
RightArm 20.803098 20.608546 41.594731
RightForeArm -15.027473 -0.000000 19.403633
RightHand 6.720297 -0.000000 -5.119195
RightHandThumb1 -24.326973 -0.000000 -32.862282
LeftUpLeg -8.669629 -1.416916 3.222667
LeftLeg 37.293609 -0.000000 -0.000000
LeftFoot 11.648215 14.686129 -19.606060
LeftToeBase -21.643897 -0.000000 0.000000
RightUpLeg -31.281486 -6.664760 8.122531
RightLeg 19.035915 -0.000000 -0.000000
RightFoot -7.155416 -9.354969 2.996696
RightToeBase -4.732220 -0.000000 0.000000
